<svg width="600" height="600" viewBox="0 0 600 600" fill="none" xmlns="http://www.w3.org/2000/svg">
<rect x="30" y="32" width="568" height="567" fill="#0000FF"/>
<rect x="2" width="568" height="568" fill="#FF0004"/>
<rect x="16" y="14" width="568" height="568" fill="black"/>
<path d="M67.237 412V161.495H175.365C193.957 161.495 210.225 164.879 224.17 171.647C238.114 178.415 248.959 188.16 256.706 200.881C264.453 213.602 268.326 228.851 268.326 246.628C268.326 264.567 264.33 279.694 256.339 292.007C248.429 304.32 237.298 313.616 222.946 319.895C208.676 326.174 192 329.314 172.919 329.314H108.335V276.473H159.219C167.211 276.473 174.02 275.494 179.646 273.537C185.354 271.499 189.717 268.278 192.734 263.874C195.833 259.471 197.382 253.722 197.382 246.628C197.382 239.452 195.833 233.621 192.734 229.136C189.717 224.57 185.354 221.226 179.646 219.106C174.02 216.905 167.211 215.804 159.219 215.804H135.245V412H67.237ZM214.017 297.022L276.644 412H202.764L141.606 297.022H214.017ZM337.409 161.495L388.782 338.121H390.74L442.113 161.495H518.928L436.241 412H343.281L260.594 161.495H337.409Z" fill="#0000FF"/>
<path d="M93.4592 444.222V193.717H201.587C220.179 193.717 236.448 197.101 250.392 203.869C264.336 210.638 275.181 220.382 282.928 233.103C290.675 245.824 294.548 261.073 294.548 278.85C294.548 296.79 290.552 311.916 282.561 324.229C274.651 336.543 263.52 345.839 249.169 352.118C234.898 358.397 218.222 361.536 199.141 361.536H134.558V308.695H185.441C193.433 308.695 200.242 307.717 205.868 305.759C211.577 303.721 215.939 300.5 218.956 296.096C222.055 291.693 223.604 285.944 223.604 278.85C223.604 271.674 222.055 265.843 218.956 261.358C215.939 256.792 211.577 253.449 205.868 251.328C200.242 249.127 193.433 248.026 185.441 248.026H161.467V444.222H93.4592ZM240.239 329.244L302.866 444.222H228.986L167.828 329.244H240.239ZM363.632 193.717L415.005 370.343H416.962L468.335 193.717H545.15L462.464 444.222H369.503L286.817 193.717H363.632Z" fill="#FF0004"/>
<path d="M80.237 429V178.495H188.365C206.957 178.495 223.225 181.879 237.17 188.647C251.114 195.415 261.959 205.16 269.706 217.881C277.453 230.602 281.326 245.851 281.326 263.628C281.326 281.567 277.33 296.694 269.339 309.007C261.429 321.32 250.298 330.616 235.946 336.895C221.676 343.174 205 346.314 185.919 346.314H121.335V293.473H172.219C180.211 293.473 187.02 292.494 192.646 290.537C198.354 288.499 202.717 285.278 205.734 280.874C208.833 276.471 210.382 270.722 210.382 263.628C210.382 256.452 208.833 250.621 205.734 246.136C202.717 241.57 198.354 238.226 192.646 236.106C187.02 233.905 180.211 232.804 172.219 232.804H148.245V429H80.237ZM227.017 314.022L289.644 429H215.764L154.606 314.022H227.017ZM350.409 178.495L401.782 355.121H403.74L455.113 178.495H531.928L449.241 429H356.281L273.594 178.495H350.409Z" fill="white"/>
</svg>
